<svg xmlns="http://www.w3.org/2000/svg" width="19.214" height="22.938" viewBox="0 0 19.214 22.938">
  <path id="ic_assignment_24px" d="M20.08,3.294H15.618A3.238,3.238,0,0,0,12.607,1,3.238,3.238,0,0,0,9.6,3.294H5.135A2.225,2.225,0,0,0,3,5.588V21.645a2.225,2.225,0,0,0,2.135,2.294H20.08a2.225,2.225,0,0,0,2.135-2.294V5.588A2.225,2.225,0,0,0,20.08,3.294Zm-7.472,0a1.113,1.113,0,0,1,1.067,1.147,1.07,1.07,0,1,1-2.135,0A1.113,1.113,0,0,1,12.607,3.294Zm2.135,16.057H7.27V17.057h7.472Zm3.2-4.588H7.27V12.469H17.945Zm0-4.588H7.27V7.882H17.945Z" transform="translate(-3 -1)" fill="#fff"/>
</svg>
