<svg xmlns="http://www.w3.org/2000/svg" width="85.245" height="85.245" viewBox="0 0 85.245 85.245">
  <g id="Group_4" data-name="Group 4" transform="translate(124 256)">
    <g id="parking" transform="translate(-124 -256)">
      <path id="Path_110" data-name="Path 110" d="M31.022,23.273a7.757,7.757,0,0,0-7.749,7.749v62a7.757,7.757,0,0,0,7.749,7.749h62a7.757,7.757,0,0,0,7.749-7.749v-62a7.757,7.757,0,0,0-7.749-7.749h-62Z" transform="translate(-19.398 -19.398)" fill="#fff"/>
      <path id="Path_111" data-name="Path 111" d="M73.62,85.245h-62A11.636,11.636,0,0,1,0,73.62v-62A11.636,11.636,0,0,1,11.624,0h62A11.636,11.636,0,0,1,85.245,11.624v62A11.636,11.636,0,0,1,73.62,85.245Zm-62-81.37a7.757,7.757,0,0,0-7.749,7.749v62a7.757,7.757,0,0,0,7.749,7.749h62A7.757,7.757,0,0,0,81.37,73.62v-62A7.757,7.757,0,0,0,73.62,3.875h-62Z" fill="#00384e"/>
      <g id="Group_3" data-name="Group 3" transform="translate(7.749 7.749)">
        <path id="Path_112" data-name="Path 112" d="M230.778,186.182h-9.687v11.624h9.687a5.812,5.812,0,1,0,0-11.624Z" transform="translate(-192.03 -162.933)" fill="#72c6ef"/>
        <path id="Path_113" data-name="Path 113" d="M112.416,46.545h-62a3.874,3.874,0,0,0-3.875,3.875v62a3.874,3.874,0,0,0,3.875,3.875h62a3.874,3.874,0,0,0,3.875-3.875v-62A3.874,3.874,0,0,0,112.416,46.545ZM85.293,89.167H75.606v11.624H67.856V65.919a3.874,3.874,0,0,1,3.875-3.875H84.723c7.426,0,13.9,5.721,14.123,13.145A13.559,13.559,0,0,1,85.293,89.167Z" transform="translate(-46.545 -46.545)" fill="#72c6ef"/>
      </g>
    </g>
  </g>
</svg>
